<?xml version="1.0" standalone="no"?>
<!DOCTYPE svg PUBLIC "-//W3C//DTD SVG 20010904//EN"
 "http://www.w3.org/TR/2001/REC-SVG-20010904/DTD/svg10.dtd">
<svg version="1.0" xmlns="http://www.w3.org/2000/svg"
 width="512.000000pt" height="512.000000pt" viewBox="0 0 512.000000 512.000000"
 preserveAspectRatio="xMidYMid meet">
<metadata>
Created by potrace 1.14, written by Peter Selinger 2001-2017
</metadata>
<g transform="translate(0.000000,512.000000) scale(0.100000,-0.100000)"
fill="#000000" stroke="none">
<path d="M1497 4694 c-1 -1 -45 -4 -97 -7 -134 -9 -296 -57 -415 -122 -307
-169 -510 -471 -551 -820 -9 -71 -9 -2308 0 -2375 39 -311 212 -593 470 -764
134 -90 319 -157 471 -173 70 -7 2285 -7 2368 0 37 3 71 8 75 10 4 3 24 8 45
11 84 13 217 67 322 131 276 166 470 474 501 795 10 100 11 2256 1 2345 -9 92
-13 111 -26 165 -109 425 -482 751 -911 796 -50 5 -2246 13 -2253 8z"/>
</g>
</svg>
